HIERARCHY
ROOT Torso
{
    OFFSET 0 0 0
    CHANNELS 6 Xposition Yposition Zposition Zrotation Yrotation Xrotation
    JOINT LHip1 
    {   
        OFFSET 0 -0.06 0.01
        CHANNELS 3 Zrotation Yrotation Xrotation
        JOINT LHip2
        {
            OFFSET -0.055 -0.055 0
            CHANNELS 3 Zrotation Yrotation Xrotation
            JOINT LHip3
            {
                OFFSET 0 0 -0.01
                CHANNELS 3 Zrotation Yrotation Xrotation
                JOINT LThigh
                {
                    OFFSET 0.01 0 0
                    CHANNELS 3 Zrotation Yrotation Xrotation
                    JOINT LLeg
                    {
                        OFFSET -0.01 -0.120 -0.014
                        CHANNELS 3 Zrotation Yrotation Xrotation
                        JOINT LFoot
                        {
                            OFFSET 0 -0.1 0.01
                            CHANNELS 3 Zrotation Yrotation Xrotation
                            End Site
                            {
                                OFFSET 0 -0.035 -0.090
                            }
                        }
                    }
                }
            }
        }
    }
    JOINT RHip1 
    {   
        OFFSET 0 -0.06 0.01
        CHANNELS 3 Zrotation Yrotation Xrotation
        JOINT RHip2
        {
            OFFSET 0.055 -0.055 0
            CHANNELS 3 Zrotation Yrotation Xrotation
            JOINT RHip3
            {
                OFFSET 0 0 -0.01
                CHANNELS 3 Zrotation Yrotation Xrotation
                JOINT RThigh
                {
                    OFFSET 0.01 0 0
                    CHANNELS 3 Zrotation Yrotation Xrotation
                    JOINT RLeg
                    {
                        OFFSET -0.01 -0.120 -0.014
                        CHANNELS 3 Zrotation Yrotation Xrotation
                        JOINT RFoot
                        {
                            OFFSET 0 -0.1 0.01
                            CHANNELS 3 Zrotation Yrotation Xrotation
                            End Site
                            {
                                OFFSET 0 -0.035 -0.090
                            }
                        }
                    }
                }
            }
        }
    }
    JOINT Neck
    {
        OFFSET 0 0.04 0
        CHANNELS 3 Zrotation Yrotation Xrotation
        JOINT Head
        {
            OFFSET 0 0.1 0
            CHANNELS 3 Zrotation Yrotation Xrotation
            End Site 
            {
                OFFSET 0 0.07 0
            }
        }
    }
    JOINT LUpperarm
    {
        OFFSET -0.098 0.075 0
        CHANNELS 3 Zrotation Yrotation Xrotation
        JOINT LLowerarm
        {
            OFFSET 0 0.009 -0.09
            CHANNELS 3 Zrotation Yrotation Xrotation
            End Site
            {
                OFFSET 0 0 -0.105
            }
        }
    }
    JOINT RUpperarm
    {
        OFFSET 0.098 0.075 0
        CHANNELS 3 Zrotation Yrotation Xrotation
        JOINT RLowerarm
        {
            OFFSET 0 0.009 -0.09
            CHANNELS 3 Zrotation Yrotation Xrotation
            End Site
            {
                OFFSET 0 0 -0.105
            }
        }
    }
}
MOTION
Frames: 23
Frame Time: 0.008333
0 0 0 0.0 0.0 0.0 0.0 0.0 0.0 0.0 -2.208249121706899 0.0 0.0 0.0 13.462677934169859 0.0 0.0 0.0 0.0 0.0 -33.303851 0.0 -13.308943 4.040467 0.0 0.0 0.0 0.0 8.191603046291249 0.0 0.0 0.0 11.56140366518006 0.0 0.0 0.0 0.0 0.0 -33.155063 0.0 4.316175 -8.928276 0.0 0.0 0.0 0.0 0.0 0.0 0.0 0.0 -90.0 0.0 0.0 0.0 0.0 0.0 -90.0 0.0 0.0 0.0 
0 0 0 0.0 0.0 0.0 0.0 0.0 0.0 0.0 -2.4535753022889963 0.0 0.0 0.0 14.053871465847998 0.0 0.0 0.0 0.0 0.0 -34.519552 0.0 -13.437451 4.613008 0.0 0.0 0.0 0.0 7.909657209149174 0.0 0.0 0.0 10.93800599675175 0.0 0.0 0.0 0.0 0.0 -32.156024 0.0 3.898292 -9.80459 0.0 0.0 0.0 0.0 0.0 0.0 0.0 0.0 -90.0 0.0 0.0 0.0 0.0 0.0 -90.0 0.0 0.0 0.0 
0 0 0 0.0 0.0 0.0 0.0 0.0 0.0 0.0 -2.706077003624344 0.0 0.0 0.0 14.706015073331178 0.0 0.0 0.0 0.0 0.0 -35.805295 0.0 -13.477452 5.376573 0.0 0.0 0.0 0.0 7.670608721398182 0.0 0.0 0.0 10.427474019650287 0.0 0.0 0.0 0.0 0.0 -31.295083 0.0 3.513666 -10.433271 0.0 0.0 0.0 0.0 0.0 0.0 0.0 0.0 -90.0 0.0 0.0 0.0 0.0 0.0 -90.0 0.0 0.0 0.0 
0 0 0 0.0 0.0 0.0 0.0 0.0 0.0 0.0 -3.0010518676641027 0.0 0.0 0.0 15.455542030192346 0.0 0.0 0.0 0.0 0.0 -37.218198 0.0 -13.528638 6.288058 0.0 0.0 0.0 0.0 7.463432061356343 0.0 0.0 0.0 10.012666936753416 0.0 0.0 0.0 0.0 0.0 -30.577164 0.0 3.176562 -10.893805 0.0 0.0 0.0 0.0 0.0 0.0 0.0 0.0 -90.0 0.0 0.0 0.0 0.0 0.0 -90.0 0.0 0.0 0.0 
0 0 0 0.0 0.0 0.0 0.0 0.0 0.0 0.0 -3.3261757393554205 0.0 0.0 0.0 16.313959469352547 0.0 0.0 0.0 0.0 0.0 -38.792228 0.0 -13.43413 7.455906 0.0 0.0 0.0 0.0 7.270464066627554 0.0 0.0 0.0 9.671975903704263 0.0 0.0 0.0 0.0 0.0 -29.955112 0.0 2.804369 -11.210743 0.0 0.0 0.0 0.0 0.0 0.0 0.0 0.0 -90.0 0.0 0.0 0.0 0.0 0.0 -90.0 0.0 0.0 0.0 
0 0 0 0.0 0.0 0.0 0.0 0.0 0.0 0.0 -3.6820558729412625 0.0 0.0 0.0 17.33747197987206 0.0 0.0 0.0 0.0 0.0 -40.560281 0.0 -13.161221 8.942638 0.0 0.0 0.0 0.0 7.116243478978987 0.0 0.0 0.0 9.453399333702562 0.0 0.0 0.0 0.0 0.0 -29.382798 0.0 2.419328 -11.255224 0.0 0.0 0.0 0.0 0.0 0.0 0.0 0.0 -90.0 0.0 0.0 0.0 0.0 0.0 -90.0 0.0 0.0 0.0 
0 0 0 0.0 0.0 0.0 0.0 0.0 0.0 0.0 -4.067890588010968 0.0 0.0 0.0 18.458010574166483 0.0 0.0 0.0 0.0 0.0 -42.509521 0.0 -12.763692 10.565902 0.0 0.0 0.0 0.0 6.978754546670061 0.0 0.0 0.0 9.226068889316196 0.0 0.0 0.0 0.0 0.0 -28.785504 0.0 2.040493 -11.135293 0.0 0.0 0.0 0.0 0.0 0.0 0.0 0.0 -90.0 0.0 0.0 0.0 0.0 0.0 -90.0 0.0 0.0 0.0 
0 0 0 0.0 0.0 0.0 0.0 0.0 0.0 0.0 -4.470264309823065 0.0 0.0 0.0 19.673519304877825 0.0 0.0 0.0 0.0 0.0 -44.611954 0.0 -12.23402 12.241503 0.0 0.0 0.0 0.0 6.856204691767488 0.0 0.0 0.0 8.988063111170305 0.0 0.0 0.0 0.0 0.0 -28.137253 0.0 1.675276 -10.92023 0.0 0.0 0.0 0.0 0.0 0.0 0.0 0.0 -90.0 0.0 0.0 0.0 0.0 0.0 -90.0 0.0 0.0 0.0 
0 0 0 0.0 0.0 0.0 0.0 0.0 0.0 0.0 -4.904243193224332 0.0 0.0 0.0 20.95410114390105 0.0 0.0 0.0 0.0 0.0 -46.814431 0.0 -11.620353 13.951551 0.0 0.0 0.0 0.0 6.755926019455089 0.0 0.0 0.0 8.694487097776978 0.0 0.0 0.0 0.0 0.0 -27.3859 0.0 1.344291 -10.700422 0.0 0.0 0.0 0.0 0.0 0.0 0.0 0.0 -90.0 0.0 0.0 0.0 0.0 0.0 -90.0 0.0 0.0 0.0 
0 0 0 0.0 0.0 0.0 0.0 0.0 0.0 0.0 -5.3406702259659795 0.0 0.0 0.0 22.285098072094314 0.0 0.0 0.0 0.0 0.0 -49.078361 0.0 -10.93898 15.667844 0.0 0.0 0.0 0.0 6.669867728308773 0.0 0.0 0.0 8.397562940012355 0.0 0.0 0.0 0.0 0.0 -26.611082 0.0 1.044366 -10.445071 0.0 0.0 0.0 0.0 0.0 0.0 0.0 0.0 -90.0 0.0 0.0 0.0 0.0 0.0 -90.0 0.0 0.0 0.0 
0 0 0 0.0 0.0 0.0 0.0 0.0 0.0 0.0 -5.784847838521998 0.0 0.0 0.0 23.656260103207764 0.0 0.0 0.0 0.0 0.0 -51.342385 0.0 -10.180228 17.476007 0.0 0.0 0.0 0.0 6.598015545659095 0.0 0.0 0.0 8.10221106169784 0.0 0.0 0.0 0.0 0.0 -25.841407 0.0 0.752262 -10.18673 0.0 0.0 0.0 0.0 0.0 0.0 0.0 0.0 -90.0 0.0 0.0 0.0 0.0 0.0 -90.0 0.0 0.0 0.0 
0 0 0 0.0 0.0 0.0 0.0 0.0 0.0 0.0 -6.217625124227496 0.0 0.0 0.0 25.077720658438253 0.0 0.0 0.0 0.0 0.0 -53.5709 0.0 -9.289146 19.423008 0.0 0.0 0.0 0.0 6.528237857121752 0.0 0.0 0.0 7.8198367779375015 0.0 0.0 0.0 0.0 0.0 -25.080971 0.0 0.48917 -9.899463 0.0 0.0 0.0 0.0 0.0 0.0 0.0 0.0 -90.0 0.0 0.0 0.0 0.0 0.0 -90.0 0.0 0.0 0.0 
0 0 0 0.0 0.0 0.0 0.0 0.0 0.0 0.0 -6.633060950018532 0.0 0.0 0.0 26.505499805322863 0.0 0.0 0.0 0.0 0.0 -55.732245 0.0 -8.25576 21.516778 0.0 0.0 0.0 0.0 6.474529555540144 0.0 0.0 0.0 7.54002246558352 0.0 0.0 0.0 0.0 0.0 -24.337278 0.0 0.270052 -9.584601 0.0 0.0 0.0 0.0 0.0 0.0 0.0 0.0 -90.0 0.0 0.0 0.0 0.0 0.0 -90.0 0.0 0.0 0.0 
0 0 0 0.0 0.0 0.0 0.0 0.0 0.0 0.0 -7.0399505283682515 0.0 0.0 0.0 27.90649517313247 0.0 0.0 0.0 0.0 0.0 -57.801541 0.0 -7.094744 23.628175 0.0 0.0 0.0 0.0 6.4322769399415165 0.0 0.0 0.0 7.249454503705176 0.0 0.0 0.0 0.0 0.0 -23.595043 0.0 0.086285 -9.270832 0.0 0.0 0.0 0.0 0.0 0.0 0.0 0.0 -90.0 0.0 0.0 0.0 0.0 0.0 -90.0 0.0 0.0 0.0 
0 0 0 0.0 0.0 0.0 0.0 0.0 0.0 0.0 -7.466350713934119 0.0 0.0 0.0 29.313098879247338 0.0 0.0 0.0 0.0 0.0 -59.836418 0.0 -5.977577 25.618922 0.0 0.0 0.0 0.0 6.388221591842779 0.0 0.0 0.0 6.9299978932151385 0.0 0.0 0.0 0.0 0.0 -22.820072 0.0 -0.115816 -8.945998 0.0 0.0 0.0 0.0 0.0 0.0 0.0 0.0 -90.0 0.0 0.0 0.0 0.0 0.0 -90.0 0.0 0.0 0.0 
0 0 0 0.0 0.0 0.0 0.0 0.0 0.0 0.0 -7.903519156751926 0.0 0.0 0.0 30.70173773513525 0.0 0.0 0.0 0.0 0.0 -61.843261 0.0 -5.099587 27.296492 0.0 0.0 0.0 0.0 6.368377965239588 0.0 0.0 0.0 6.595411253671189 0.0 0.0 0.0 0.0 0.0 -22.010664 0.0 -0.234397 -8.542156 0.0 0.0 0.0 0.0 0.0 0.0 0.0 0.0 -90.0 0.0 0.0 0.0 0.0 0.0 -90.0 0.0 0.0 0.0 
0 0 0 0.0 0.0 0.0 0.0 0.0 0.0 0.0 -8.335700101029929 0.0 0.0 0.0 32.065866442936425 0.0 0.0 0.0 0.0 0.0 -63.841716 0.0 -4.453451 28.637981 0.0 0.0 0.0 0.0 6.371059401363709 0.0 0.0 0.0 6.309634786403447 0.0 0.0 0.0 0.0 0.0 -21.263712 0.0 -0.22449 -8.078985 0.0 0.0 0.0 0.0 0.0 0.0 0.0 0.0 -90.0 0.0 0.0 0.0 0.0 0.0 -90.0 0.0 0.0 0.0 
0 0 0 0.0 0.0 0.0 0.0 0.0 0.0 0.0 -8.779316324460893 0.0 0.0 0.0 33.376315541302226 0.0 0.0 0.0 0.0 0.0 -65.81588 0.0 -4.097909 29.628434 0.0 0.0 0.0 0.0 6.371244781705585 0.0 0.0 0.0 6.063392869762372 0.0 0.0 0.0 0.0 0.0 -20.594091 0.0 -0.212183 -7.658447 0.0 0.0 0.0 0.0 0.0 0.0 0.0 0.0 -90.0 0.0 0.0 0.0 0.0 0.0 -90.0 0.0 0.0 0.0 
0 0 0 0.0 0.0 0.0 0.0 0.0 0.0 0.0 -9.200613176949119 0.0 0.0 0.0 34.62481563412528 0.0 0.0 0.0 0.0 0.0 -67.769954 0.0 -3.999371 30.213505 0.0 0.0 0.0 0.0 6.364652266424869 0.0 0.0 0.0 5.8502884677810885 0.0 0.0 0.0 0.0 0.0 -20.010565 0.0 -0.178898 -7.322485 0.0 0.0 0.0 0.0 0.0 0.0 0.0 0.0 -90.0 0.0 0.0 0.0 0.0 0.0 -90.0 0.0 0.0 0.0 
0 0 0 0.0 0.0 0.0 0.0 0.0 0.0 0.0 -9.622238677800482 0.0 0.0 0.0 35.79727314057782 0.0 0.0 0.0 0.0 0.0 -69.682071 0.0 -4.18664 30.450078 0.0 0.0 0.0 0.0 6.340204436708532 0.0 0.0 0.0 5.669462123258116 0.0 0.0 0.0 0.0 0.0 -19.500628 0.0 -0.223523 -7.07952 0.0 0.0 0.0 0.0 0.0 0.0 0.0 0.0 -90.0 0.0 0.0 0.0 0.0 0.0 -90.0 0.0 0.0 0.0 
0 0 0 0.0 0.0 0.0 0.0 0.0 0.0 0.0 -10.025977933512394 0.0 0.0 0.0 36.9101888373032 0.0 0.0 0.0 0.0 0.0 -71.546289 0.0 -4.546726 30.376302 0.0 0.0 0.0 0.0 6.314038421122433 0.0 0.0 0.0 5.496075308993426 0.0 0.0 0.0 0.0 0.0 -19.027604 0.0 -0.266785 -6.905198 0.0 0.0 0.0 0.0 0.0 0.0 0.0 0.0 -90.0 0.0 0.0 0.0 0.0 0.0 -90.0 0.0 0.0 0.0 
0 0 0 0.0 0.0 0.0 0.0 0.0 0.0 0.0 -10.42140712789056 0.0 0.0 0.0 37.953956655397775 0.0 0.0 0.0 0.0 0.0 -73.333834 0.0 -5.14617 29.994277 0.0 0.0 0.0 0.0 6.297620741332054 0.0 0.0 0.0 5.315125981739561 0.0 0.0 0.0 0.0 0.0 -18.557685 0.0 -0.250356 -6.692365 0.0 0.0 0.0 0.0 0.0 0.0 0.0 0.0 -90.0 0.0 0.0 0.0 0.0 0.0 -90.0 0.0 0.0 0.0 
0 0 0 0.0 0.0 0.0 0.0 0.0 0.0 0.0 -10.80726859552685 0.0 0.0 0.0 38.932068778921696 0.0 0.0 0.0 0.0 0.0 -75.040685 0.0 -5.861413 29.381688 0.0 0.0 0.0 0.0 6.277573563554569 0.0 0.0 0.0 5.09168345795541 0.0 0.0 0.0 0.0 0.0 -18.023353 0.0 -0.301391 -6.48407 0.0 0.0 0.0 0.0 0.0 0.0 0.0 0.0 -90.0 0.0 0.0 0.0 0.0 0.0 -90.0 0.0 0.0 0.0 
